<svg width="45" height="41" viewBox="0 0 45 41" fill="none" xmlns="http://www.w3.org/2000/svg">
<path fill-rule="evenodd" clip-rule="evenodd" d="M26.6811 19.9849C26.5839 17.7909 24.7521 16.0417 22.5066 16.0417C20.2611 16.0417 18.4292 17.7909 18.332 19.9849H26.6811Z" fill="#FFD700"/>
<path fill-rule="evenodd" clip-rule="evenodd" d="M22.507 23.9008C24.0305 23.9008 25.368 23.0884 26.1257 21.8652H18.8882C19.6459 23.0884 20.9834 23.9008 22.507 23.9008Z" fill="#D0133D"/>
<path fill-rule="evenodd" clip-rule="evenodd" d="M26.0988 21.911C26.4415 21.343 26.65 20.6868 26.6811 19.9851L26.6811 19.9852L18.332 19.9852C18.3631 20.6868 18.5717 21.343 18.9144 21.911H26.0988Z" fill="#1C4F95"/>
<path d="M44.9313 20.0346C44.9313 17.0546 41.2038 14.2305 35.4889 12.4792C36.8077 6.64763 36.2216 2.00804 33.6389 0.522641C33.0436 0.174214 32.3476 0.00916915 31.5874 0.00916915V2.05389C32.0087 2.05389 32.3476 2.13641 32.6315 2.29229C33.877 3.00748 34.4174 5.73072 33.9961 9.23333C33.8954 10.0952 33.7305 11.003 33.529 11.9291C31.734 11.4889 29.7741 11.1497 27.7134 10.9296C26.477 9.23333 25.1948 7.69291 23.9035 6.34505C26.8892 3.5668 29.6916 2.04472 31.5966 2.04472V0C29.078 0 25.781 1.79715 22.4473 4.91466C19.1136 1.81549 15.8166 0.0366766 13.298 0.0366766V2.0814C15.1938 2.0814 18.0055 3.59431 20.9911 6.35422C19.7089 7.70208 18.4268 9.23333 17.2087 10.9296C15.1389 11.1497 13.179 11.4889 11.3839 11.9382C11.1733 11.0213 11.0176 10.1319 10.9077 9.27918C10.4772 5.77656 11.0084 3.05333 12.2448 2.32896C12.5196 2.16392 12.8768 2.09057 13.298 2.09057V0.0458457C12.5287 0.0458457 11.8327 0.21089 11.2282 0.559318C8.65472 2.04472 8.07774 6.67514 9.40571 12.4884C3.70916 14.2489 0 17.0638 0 20.0346C0 23.0146 3.72748 25.8387 9.44234 27.59C8.12353 33.4215 8.70967 38.0611 11.2923 39.5465C11.8876 39.895 12.5837 40.06 13.353 40.06C15.8716 40.06 19.1686 38.2628 22.5023 35.1453C25.8359 38.2445 29.133 40.0233 31.6515 40.0233C32.4208 40.0233 33.1169 39.8583 33.7213 39.5099C36.2949 38.0245 36.8718 33.394 35.5439 27.5808C41.2221 25.8295 44.9313 23.0054 44.9313 20.0346ZM33.007 13.9188C32.6681 15.1016 32.2468 16.3211 31.7706 17.5406C31.3951 16.807 31.0013 16.0735 30.5708 15.34C30.1496 14.6065 29.7008 13.8913 29.252 13.1944C30.5525 13.387 31.8072 13.6254 33.007 13.9188ZM28.8124 23.6839C28.0981 24.9217 27.3654 26.0954 26.6052 27.1865C25.2406 27.3057 23.8577 27.3699 22.4656 27.3699C21.0827 27.3699 19.6998 27.3057 18.3443 27.1957C17.5842 26.1046 16.8424 24.9401 16.128 23.7114C15.432 22.5103 14.8 21.2908 14.223 20.0621C14.7909 18.8334 15.432 17.6048 16.1188 16.4036C16.8332 15.1658 17.5659 13.9921 18.326 12.901C19.6906 12.7818 21.0735 12.7176 22.4656 12.7176C23.8486 12.7176 25.2315 12.7818 26.5869 12.8918C27.3471 13.9829 28.0889 15.1474 28.8033 16.3761C29.4993 17.5773 30.1312 18.7967 30.7082 20.0254C30.1312 21.2541 29.4993 22.4827 28.8124 23.6839ZM31.7706 22.4919C32.2652 23.7206 32.6864 24.9492 33.0345 26.1412C31.8347 26.4346 30.5708 26.6822 29.2612 26.8748C29.7099 26.1687 30.1587 25.4444 30.58 24.7017C31.0013 23.9681 31.3951 23.2254 31.7706 22.4919ZM22.4839 32.2754C21.6322 31.3952 20.7805 30.4141 19.9379 29.3413C20.7622 29.3779 21.6047 29.4055 22.4565 29.4055C23.3174 29.4055 24.1691 29.3871 25.0025 29.3413C24.1783 30.4141 23.3265 31.3952 22.4839 32.2754ZM15.6701 26.8748C14.3696 26.6822 13.1149 26.4438 11.9151 26.1504C12.254 24.9676 12.6753 23.7481 13.1515 22.5286C13.527 23.2621 13.9208 23.9957 14.3513 24.7292C14.7817 25.4627 15.2213 26.1779 15.6701 26.8748ZM22.4382 7.79377C23.2899 8.67401 24.1416 9.65511 24.9842 10.7279C24.1599 10.6912 23.3174 10.6637 22.4656 10.6637C21.6047 10.6637 20.753 10.6821 19.9196 10.7279C20.7438 9.65511 21.5956 8.67401 22.4382 7.79377ZM15.6609 13.1944C15.2122 13.9004 14.7634 14.6248 14.3421 15.3675C13.9208 16.101 13.527 16.8346 13.1515 17.5681C12.657 16.3394 12.2357 15.1108 11.8876 13.9188C13.0874 13.6345 14.3513 13.387 15.6609 13.1944ZM7.37254 24.6742C4.13045 23.2896 2.03317 21.4741 2.03317 20.0346C2.03317 18.595 4.13045 16.7704 7.37254 15.395C8.16016 15.0557 9.02105 14.7532 9.90942 14.4689C10.4315 16.2661 11.1183 18.1366 11.9701 20.0529C11.1275 21.9601 10.4498 23.8214 9.9369 25.6094C9.03021 25.3252 8.16932 25.0134 7.37254 24.6742ZM12.2998 37.7769C11.0542 37.0617 10.5139 34.3385 10.9352 30.8358C11.0359 29.9739 11.2008 29.0662 11.4022 28.1401C13.1973 28.5802 15.1572 28.9195 17.2179 29.1395C18.4542 30.8358 19.7364 32.3763 21.0278 33.7241C18.0421 36.5024 15.2396 38.0245 13.3347 38.0245C12.9225 38.0153 12.5745 37.9328 12.2998 37.7769ZM34.0236 30.79C34.454 34.2926 33.9228 37.0158 32.6864 37.7402C32.4117 37.9053 32.0545 37.9786 31.6332 37.9786C29.7374 37.9786 26.9258 36.4657 23.9401 33.7058C25.2223 32.3579 26.5045 30.8267 27.7226 29.1304C29.7924 28.9103 31.7523 28.5711 33.5473 28.1218C33.758 29.0479 33.9228 29.9373 34.0236 30.79ZM37.5496 24.6742C36.7619 25.0134 35.9011 25.316 35.0127 25.6003C34.4907 23.8031 33.8038 21.9326 32.952 20.0162C33.7946 18.1091 34.4723 16.2477 34.9852 14.4597C35.8919 14.744 36.7528 15.0557 37.5587 15.395C40.8008 16.7795 42.8981 18.595 42.8981 20.0346C42.8889 21.4741 40.7917 23.2988 37.5496 24.6742Z" fill="#112B42"/>
</svg>
