<?xml version="1.0" encoding="UTF-8"?>
<svg width="294px" height="315px" viewBox="0 0 294 315" version="1.1" xmlns="http://www.w3.org/2000/svg" xmlns:xlink="http://www.w3.org/1999/xlink">
    <!-- Generator: Sketch 57.1 (83088) - https://sketch.com -->
    <title>America_Latina_red 2</title>
    <desc>Created with Sketch.</desc>
    <g id="Page-1" stroke="none" stroke-width="1" fill="none" fill-rule="evenodd">
        <g id="V1" fill-rule="nonzero">
            <g id="America_Latina_red-2">
                <g id="America_Latina_red">
                    <path d="M211.095936,314.242385 C212.189718,313.646523 211.853424,313.375564 209.520835,312.973195 C205.239908,312.234753 203.387641,310.228704 204.556732,307.596916 C205.442494,305.602874 208.314541,304.613611 208.314541,306.302546 C208.314541,306.742753 209.574694,308.591833 211.114932,310.411604 C213.828328,313.617521 213.682937,315 210.632363,315 C210.122444,315 210.331034,314.659074 211.095936,314.242385 Z M211.984519,310.374442 C210.417979,308.471675 209.287352,306.785593 209.471937,306.627613 C209.656468,306.469625 211.870542,307.524427 214.391998,308.971611 C216.913504,310.418795 220.228092,311.966086 221.757895,312.410026 C224.426357,313.18443 224.342233,313.229719 219.685974,313.525615 C214.869037,313.831729 214.811371,313.808144 211.984519,310.374442 Z M225.929961,312.737431 C225.929961,312.300996 226.347142,311.723235 226.857061,311.4535 C227.366976,311.183774 227.78421,311.320169 227.78421,311.7566 C227.78421,312.193031 227.366976,312.770796 226.857061,313.040526 C226.347142,313.310257 225.929961,313.173862 225.929961,312.737431 Z M200.398594,311.0078 C200.064026,310.544449 198.753877,309.828087 197.48715,309.415888 C195.128363,308.648324 194.946177,307.067792 197.144232,306.440701 C197.877456,306.23152 198.112818,306.45185 197.726894,306.986244 C197.370877,307.479294 197.417117,307.884471 197.829651,307.88664 C198.242186,307.888805 199.831327,308.768668 201.361076,309.841879 C203.416189,311.28365 203.733066,311.800631 202.574729,311.821725 C201.712448,311.837418 200.733216,311.471152 200.398594,311.0078 Z M198.732428,305.369052 C197.862948,304.952598 196.325576,304.836246 195.316025,305.110487 C194.269315,305.39483 193.480516,305.245118 193.480516,304.762124 C193.480516,303.156073 189.862877,300.761055 188.241385,301.293602 C187.061859,301.681004 186.811886,301.490805 187.241435,300.532734 C187.55993,299.82228 187.030234,298.402424 186.047922,297.333567 C185.076466,296.276576 183.383527,293.357246 182.285834,290.846148 C180.892081,287.657899 179.484448,285.88836 177.619817,284.980559 C174.500981,283.46213 174.276058,282.777054 176.681815,282.123538 C179.431428,281.376623 179.943016,277.227965 177.628535,274.446031 C176.523895,273.118283 175.942641,271.55927 176.275438,270.816953 C176.668192,269.941003 175.584221,268.403958 172.959595,266.115046 C169.646626,263.225909 169.034003,262.175656 168.885846,259.131422 C168.789927,257.160729 168.229284,255.051122 167.639994,254.44341 C166.89769,253.677858 166.746245,250.930135 167.147035,245.49767 C167.581387,239.610211 167.328387,235.976564 166.131484,230.912027 C164.35395,223.390892 163.446057,209.377552 163.907912,196.592623 C164.00644,193.86493 163.593381,190.120015 162.99,188.270601 C161.52063,183.767015 154.760047,178.082178 146.404483,174.324237 C140.428317,171.636432 139.587955,170.94732 137.251815,166.818961 C135.837034,164.318806 133.133189,160.58219 131.243298,158.515369 C129.353356,156.448549 127.298553,153.413365 126.677065,151.770515 C124.704511,146.556162 121.227254,141.316872 118.856883,139.987578 C116.637903,138.743176 114.247438,133.75021 115.223486,132.398518 C115.487078,132.03348 117.363193,132.459822 119.392628,133.345948 C123.665887,135.211829 124.380952,135.005068 125.729977,131.513576 C126.443841,129.666075 128.016175,128.324156 131.334937,126.730046 C135.061383,124.940102 136.158924,123.910946 137.047036,121.373839 C138.358383,117.62772 139.190555,117.457148 141.060039,120.55128 C143.065262,123.87016 147.428384,126.332464 150.235564,125.729452 C151.488828,125.460241 153.392806,125.642404 154.466601,126.134271 C156.061478,126.864796 156.239229,127.316103 155.437223,128.598674 C154.897244,129.462238 154.669658,130.465466 154.931479,130.82808 C155.193353,131.190693 153.8019,131.899114 151.839419,132.402349 C147.521383,133.509618 146.912886,134.131097 144.929005,139.459761 C143.445598,143.44404 143.455616,143.755477 145.158367,146.601369 C147.32495,150.222523 151.797982,153.198226 154.249715,152.649479 C155.516912,152.365858 156.348089,152.824537 157.089035,154.216351 C157.66523,155.298683 158.970733,156.410805 159.99015,156.687726 C162.627876,157.404262 164.068958,161.826963 163.325039,166.922692 C162.87049,170.036608 163.078923,171.811581 164.093748,173.469373 C165.334227,175.495643 165.332034,176.004625 164.073918,178.133916 C163.297222,179.448462 161.981907,181.238163 161.151043,182.111029 C159.671081,183.665783 159.680211,183.669292 161.600369,182.284046 C163.499395,180.914023 163.605592,180.929143 165.014843,182.769976 C165.814867,183.814943 167.088746,186.699907 167.845764,189.181017 C168.602732,191.662119 170.299586,194.901165 171.616466,196.378881 C174.402296,199.504886 174.549884,200.738729 172.536674,204.070786 C171.373848,205.995353 171.257315,207.167619 171.984905,209.621046 C172.776211,212.289122 172.603003,213.205982 170.767181,216.068755 C167.945548,220.468651 168.062498,228.892293 171.012925,233.770524 C172.095748,235.560918 172.759148,237.754172 172.487147,238.644413 C172.215151,239.534658 172.608116,241.268474 173.360389,242.497327 C174.547691,244.436824 174.553794,244.95938 173.406628,246.457885 C172.259718,247.956028 172.266449,248.589638 173.457563,251.252399 C174.212441,252.939928 175.255707,256.795976 175.776008,259.821404 C176.429699,263.62251 177.988153,267.442406 180.819805,272.184065 C184.764912,278.790231 185.760687,282.225117 186.56807,292.012457 C186.694048,293.539965 186.84069,295.065217 186.893871,295.401892 C186.947101,295.738571 188.025592,296.417655 189.290597,296.910965 C190.555605,297.404267 191.83679,298.471772 192.137697,299.283182 C193.21452,302.186923 201.051245,304.259656 203.388843,302.258971 C203.98372,301.749815 204.614658,301.698111 204.928561,302.132781 C205.221015,302.537839 204.302266,303.602066 202.886807,304.497737 C201.012311,305.683882 199.883876,305.920553 198.732428,305.369052 Z M186.063474,304.339806 C186.063474,304.136946 187.002211,303.542869 188.149534,303.019629 C190.041045,302.156984 190.116922,302.191371 188.963128,303.388468 C187.778436,304.617631 186.063474,305.180289 186.063474,304.339806 Z M195.672306,301.419161 C194.583169,300.957273 193.252665,299.754013 192.715664,298.745271 C192.178663,297.736522 190.879424,296.677601 189.828539,296.392128 C188.777601,296.106643 187.874197,295.629323 187.82102,295.331406 C187.76779,295.033498 187.621197,293.539965 187.495166,292.012457 C186.687837,282.225117 185.692062,278.790231 181.746954,272.184065 C178.915249,267.442406 177.356799,263.62251 176.703157,259.821404 C176.182856,256.795976 175.139541,252.939928 174.384658,251.252399 C173.193549,248.589638 173.186818,247.956028 174.333724,246.457885 C175.480944,244.95938 175.47484,244.436824 174.287538,242.497327 C173.535216,241.268474 173.142301,239.534658 173.414297,238.644413 C173.686297,237.754172 173.022897,235.560918 171.940025,233.770524 C168.989647,228.892293 168.872697,220.468651 171.694276,216.068755 C173.530153,213.205982 173.703307,212.289122 172.912055,209.621046 C172.184464,207.167619 172.300997,205.995353 173.463823,204.070786 C174.274596,202.728838 174.937942,200.91156 174.937942,200.032374 C174.937942,197.712324 177.967381,196.661794 183.049273,197.219578 C186.06572,197.550649 187.979304,197.366479 189.120156,196.635302 C190.59923,195.687345 191.291542,195.984445 195.290244,199.28322 C198.25633,201.730124 201.703367,203.594657 205.385196,204.743644 C211.634609,206.693898 212.388968,207.558485 210.941621,211.111982 C209.713299,214.127758 210.41349,214.803849 215.483171,215.497067 C219.08254,215.989231 219.638067,215.821698 222.204821,213.469986 C223.743705,212.060001 225.019512,210.14072 225.039916,209.204893 C225.07342,207.66984 225.212501,207.717091 226.461747,209.688011 C228.198364,212.427921 227.215531,214.301884 221.968624,218.254678 C219.912677,219.803561 218.14339,221.767504 218.036876,222.618999 C217.930361,223.470486 217.613484,224.702791 217.332617,225.357437 C214.530084,231.890005 214.300721,233.730352 215.880207,237.010085 C216.471901,238.238683 216.870709,239.690725 216.766441,240.236845 C216.662172,240.782965 217.585824,241.623261 218.819051,242.104169 C220.052225,242.585089 221.957404,244.514311 223.052645,246.391337 C224.683639,249.186411 224.856219,250.157009 224.006149,251.753824 C222.689322,254.227479 217.653876,256.304414 212.973405,256.304414 C208.827954,256.304414 207.799559,257.172212 209.231408,259.462056 C210.115242,260.875517 209.520732,263.14961 207.811564,264.893181 C207.673061,265.034462 206.221382,264.557731 204.585643,263.833762 C200.680873,262.105541 199.298551,263.206394 201.271993,266.472658 C202.074676,267.801169 203.600877,269.124319 204.663556,269.412992 C206.489988,269.909126 206.509765,270.019125 205.024847,271.423452 C204.159955,272.241402 203.711253,273.482851 204.026462,274.185826 C204.365151,274.941259 203.609748,276.572543 202.176441,278.180882 C199.846512,280.795365 199.813268,280.976633 201.306904,282.927654 C202.160993,284.043326 203.493268,285.164193 204.267511,285.418474 C207.065919,286.337569 207.522711,289.469548 205.379716,293.044523 C204.281081,294.877254 203.329769,297.626552 203.265628,299.154064 C203.161257,301.641174 202.861914,301.948475 200.400841,302.095161 C198.889303,302.185257 196.761443,301.881056 195.672306,301.419161 Z M184.672802,299.154064 C184.357647,298.717629 184.541604,298.360549 185.081632,298.360549 C185.62166,298.360549 186.063474,298.717629 186.063474,299.154064 C186.063474,299.590495 185.879517,299.947575 185.654643,299.947575 C185.42977,299.947575 184.987956,299.590495 184.672802,299.154064 Z M225.69815,290.693417 C226.335558,290.473288 227.37856,290.473288 228.015972,290.693417 C228.65338,290.913545 228.131877,291.093654 226.857061,291.093654 C225.582294,291.093654 225.060738,290.913545 225.69815,290.693417 Z M178.646486,289.67875 C178.646486,289.268077 178.994157,288.74816 179.41906,288.523389 C179.844017,288.298609 180.191684,288.634616 180.191684,289.270069 C180.191684,289.905517 179.844017,290.42543 179.41906,290.42543 C178.994157,290.42543 178.646486,290.089428 178.646486,289.67875 Z M226.6253,289.106391 C227.262708,288.886262 228.305709,288.886262 228.943121,289.106391 C229.580529,289.326523 229.058973,289.506632 227.78421,289.506632 C226.50939,289.506632 225.987887,289.326523 226.6253,289.106391 Z M231.260943,289.106391 C231.898351,288.886262 232.941352,288.886262 233.57876,289.106391 C234.216119,289.326523 233.694616,289.506632 232.41985,289.506632 C231.145033,289.506632 230.623531,289.326523 231.260943,289.106391 Z M229.870217,287.497903 C230.762611,287.29832 232.222793,287.29832 233.115188,287.497903 C234.007529,287.697498 233.277436,287.860801 231.4927,287.860801 C229.707969,287.860801 228.977876,287.697498 229.870217,287.497903 Z M175.55604,276.406717 C174.429906,275.442869 174.915448,274.597604 176.328668,275.061747 C177.093516,275.312964 177.719337,275.837367 177.719337,276.227107 C177.719337,277.05903 176.442121,277.165078 175.55604,276.406717 Z M171.688743,269.786024 C170.766656,268.035848 170.238476,266.410208 170.515064,266.173488 C171.110045,265.66425 174.937942,270.767495 174.937942,272.069935 C174.937942,273.983146 173.289624,272.824515 171.688743,269.786024 Z M221.582651,240.057964 C214.986145,237.491418 214.440843,235.134057 218.182163,225.357437 C218.564639,224.357969 218.784243,224.390666 219.552117,225.561395 C220.055095,226.32822 222.2174,227.710328 224.357211,228.632747 C226.497022,229.555165 230.125199,231.546239 232.41985,233.057345 L236.59192,235.804825 L232.883373,232.887041 C230.843709,231.28226 227.297462,229.14055 225.002812,228.127677 C217.706218,224.90688 217.143283,221.875713 223.160675,218.208449 C224.699138,217.270828 226.588141,215.460598 227.358415,214.185705 C228.609177,212.115619 228.607661,211.617369 227.344433,209.526605 C226.566482,208.238975 225.929961,206.663865 225.929961,206.02633 C225.929961,204.572231 221.963821,201.793588 215.920079,199.013543 C212.180898,197.293556 211.138417,196.35594 210.626515,194.252468 C210.275925,192.811852 209.228067,190.500048 208.297891,189.115108 C206.989208,187.166548 206.877684,186.508043 207.804882,186.203529 C208.463897,185.987087 209.277961,184.87261 209.613937,183.726905 C210.574173,180.452342 206.498231,175.233078 202.168872,174.193446 C199.249289,173.492335 198.528483,172.854075 197.408399,169.978157 C196.324118,167.194105 195.31498,166.253598 191.755796,164.709952 C189.372842,163.676434 185.69081,162.431595 183.573592,161.943637 C180.366928,161.204618 179.401786,160.486751 177.794541,157.64513 C176.733324,155.768895 175.865092,153.831988 175.865092,153.340892 C175.865092,152.849792 175.460333,152.233866 174.965602,151.972176 C173.873752,151.394621 165.205586,154.488436 163.771234,155.967629 C162.356243,157.426873 158.784323,155.97362 157.40153,153.376067 C156.603856,151.877652 155.849287,151.502211 154.286138,151.825902 C151.75743,152.349522 147.967372,149.835104 145.825261,146.212738 C144.401762,143.805631 144.415229,143.35093 146.036461,139.07113 C147.636715,134.846717 148.077277,134.401294 151.849908,133.193914 C154.484396,132.350759 156.313541,132.153387 157.008251,132.637308 C158.39913,133.606174 158.752281,133.030351 160.029183,127.711764 C160.914793,124.022977 160.847158,122.81152 159.614666,120.286856 C158.30979,117.613895 158.299091,117.121261 159.520937,115.965726 C160.551471,114.991087 160.655008,114.286835 159.930552,113.178861 C158.75943,111.387791 160.511285,110.073987 163.300613,110.651415 C164.293935,110.857038 165.717693,110.593871 166.46459,110.066594 C167.541829,109.306073 167.91465,109.3426 168.268425,110.24331 C168.513702,110.867775 169.744006,112.195407 171.002436,113.193597 C173.182486,114.922811 173.427867,114.949455 176.200234,113.757937 C177.800644,113.070137 179.782956,111.780326 180.605474,110.891714 C181.958517,109.429843 181.966818,108.983961 180.692679,106.20778 C179.073739,102.680255 179.513673,101.855086 182.326382,103.143478 C183.988584,103.904861 185.117432,103.662888 189.277448,101.653471 C195.224645,98.7808064 196.798077,99.4441155 195.27031,104.179828 C194.533643,106.463446 194.648557,107.601742 195.810078,109.524165 C197.622837,112.524458 199.177269,113.099304 201.983977,111.807378 C205.379245,110.244543 211.016874,109.324809 217.893207,109.211908 L224.226901,109.107913 L226.563248,105.73549 C227.84824,103.880654 228.67535,102.363062 228.401214,102.363062 C228.127128,102.363062 226.96493,103.791387 225.818545,105.537107 C223.951878,108.379758 223.362373,108.711155 220.172668,108.711155 L216.611081,108.711155 L218.022418,106.375218 C219.076643,104.630332 219.199961,103.512903 218.509636,101.958949 C217.439653,99.5502133 218.703612,96.8084768 220.884079,96.8084768 C221.642406,96.8084768 224.083909,98.2451387 226.30962,100.001055 C229.265218,102.332819 230.65307,104.202081 231.456694,106.933749 C232.061904,108.990814 232.986443,110.901003 233.511287,111.178621 C234.896165,111.911163 232.910355,114.723431 228.435812,118.366557 C225.427141,120.816154 224.900212,121.6336 225.827155,122.413645 C226.749501,123.189834 227.309257,123.062906 228.545354,121.797274 C230.81412,119.474272 235.264134,116.646282 236.650734,116.646282 C237.310376,116.646282 238.520168,117.219735 239.33908,117.920618 C241.306261,119.604313 239.465165,121.683239 236.444543,121.189034 C235.23611,120.991315 234.566553,121.170393 234.881811,121.606989 C235.210692,122.062428 234.637789,122.154762 233.463065,121.835648 C230.184017,120.9449 231.255723,122.197095 234.882439,123.494043 C238.076004,124.636099 238.411307,124.610148 240.676939,123.045539 C245.624033,119.629241 246.76019,119.466326 251.115383,121.548807 C253.942183,122.900473 255.074321,123.929591 254.931796,125.017881 C254.535441,128.043796 255.369229,128.713855 257.820333,127.339284 C259.768465,126.246759 261.105018,126.194873 267.623038,126.958702 C274.556408,127.7712 275.464512,128.095097 278.790894,130.942082 C281.26042,133.055721 284.038321,134.445779 287.527839,135.314002 C292.213165,136.47977 292.722089,136.835317 293.571846,139.536213 C294.803871,143.452262 293.360385,147.797818 289.456297,151.925621 C287.788615,153.688918 285.744462,156.277507 284.913755,157.678037 C284.083098,159.078572 282.316578,161.15469 280.988164,162.29165 C278.739591,164.216188 278.614448,164.697594 279.174988,169.267378 C280.270076,178.194877 275.167779,194.850565 270.246673,198.412515 C268.644437,199.572222 267.273384,199.844563 264.732622,199.507789 C262.644266,199.230971 261.098337,199.409546 260.690188,199.974732 C260.326758,200.478078 258.302175,201.539868 256.191222,202.334269 C254.080215,203.128671 250.937426,204.813536 249.207173,206.07841 C246.212439,208.267681 246.112135,208.510112 247.119915,211.123654 C248.281902,214.137018 247.499417,217.704901 245.009168,220.747795 C244.204086,221.731591 243.545332,223.405328 243.545332,224.467213 C243.545332,225.529089 242.583634,227.50285 241.40813,228.853345 C240.232676,230.203829 238.092915,233.094181 236.653187,235.27634 C233.655687,239.819376 230.91468,241.998203 228.247783,241.958388 C227.227899,241.942396 224.228623,241.087458 221.582651,240.057964 Z M213.181942,214.481774 C210.83803,214.095374 210.702446,213.650272 212.023188,210.677163 C213.413968,207.546289 211.889959,205.98008 205.517591,203.991452 C201.932155,202.872531 198.322189,200.96724 195.675957,198.797109 L191.496791,195.36986 L193.826981,191.434193 C196.788525,186.432098 200.245687,184.94223 204.510806,186.829964 C206.092952,187.530201 207.399132,188.183223 207.413537,188.281124 C207.427887,188.379029 208.192631,190.423069 209.112996,192.823443 C210.607779,196.721972 211.322374,197.456125 215.808555,199.70228 C224.582815,204.095401 225.25691,204.743756 224.524468,208.085345 C223.330905,213.530601 219.730074,215.56124 213.181942,214.481774 Z M172.107596,195.938595 C171.002019,194.609738 169.480777,191.501199 168.726992,189.03071 C167.973257,186.560226 166.540942,183.558617 165.544122,182.360465 C163.898257,180.382173 163.855776,179.976745 165.081541,177.94796 C166.136964,176.201124 166.196298,175.373151 165.353694,174.151398 C164.760955,173.292011 164.220614,169.732238 164.152929,166.240783 C164.085241,162.749336 163.876651,159.196408 163.689353,158.345387 C163.440474,157.214319 164.346488,156.330255 167.057382,155.058982 C173.409862,152.079977 174.63338,151.999467 175.366186,154.512243 C176.45835,158.257332 179.584703,161.851075 182.199777,162.367517 C183.559919,162.63613 187.055805,163.749427 189.96845,164.841506 C194.450196,166.521959 195.430522,167.26986 196.347339,169.707994 C197.817023,173.616344 198.734414,174.451157 202.164961,175.001982 C204.32241,175.3484 205.654636,176.297553 207.191744,178.583417 C210.530077,183.547975 208.333116,187.533207 203.332846,185.583278 C199.943632,184.261608 195.805486,186.526543 193.022993,191.226174 C190.162219,196.058073 188.061755,197.108677 182.650618,196.414172 C179.640279,196.027805 177.926415,196.21877 176.320211,197.119529 C174.218442,198.298191 174.025717,198.244169 172.107596,195.938595 Z M119.773906,132.776808 C118.244157,132.082047 116.842736,131.40274 116.659612,131.26724 C116.476489,131.13174 117.254019,129.906247 118.387409,128.54393 L120.448159,126.066997 L118.519234,125.635279 C113.976222,124.61846 115.864284,119.443591 123.974104,110.684441 C126.403916,108.060071 128.869586,104.394704 129.453346,102.539184 C130.473176,99.2975569 130.060278,94.504037 128.552862,92.0854675 C128.050512,91.2795539 129.34015,89.6853079 132.843811,86.7809282 C135.598801,84.4971332 137.852903,82.231204 137.852903,81.7455217 C137.852903,80.3049015 142.605654,76.9706715 144.659201,76.9706715 C145.704189,76.9706715 147.688012,76.0449918 149.067779,74.9135939 C150.532346,73.7127122 152.289892,73.0001846 153.290627,73.2016847 C154.718453,73.4892026 154.578749,73.6970029 152.454019,74.4459671 C150.87699,75.0018755 149.139691,76.6903568 147.902814,78.869291 L145.90234,82.3935049 L147.739992,86.2285658 C148.835967,88.5158943 150.48564,90.4372449 151.827625,90.9894218 C155.538204,92.5162125 162.224314,94.7919301 163.28454,94.8889776 C163.829842,94.9388928 164.830676,95.0341137 165.508583,95.1005918 C166.365438,95.1846099 166.565728,95.9051035 166.165664,97.4641415 C165.849101,98.6976129 166.024605,100.68493 166.555656,101.880407 C167.22537,103.388012 167.224849,104.527945 166.553987,105.600839 C165.802185,106.803118 165.911463,107.254343 167.044646,107.626506 C168.331153,108.049042 168.30861,108.228751 166.852859,109.155107 C165.94549,109.732472 164.368722,110.031395 163.348888,109.819389 C162.329054,109.607366 160.706153,109.927907 159.742469,110.53169 C158.350599,111.40376 158.194141,111.94118 158.98159,113.145484 C159.732504,114.29389 159.638461,114.977761 158.593787,115.965726 C157.372098,117.121125 157.381489,117.611474 158.675929,120.26302 C159.906022,122.782826 159.966768,123.997055 159.05992,127.942122 C158.117743,132.041121 157.813912,132.483654 156.635014,131.474649 C155.58726,130.577877 155.517275,129.953334 156.320586,128.668623 C157.197218,127.26667 157.005798,126.820896 155.058084,125.728624 C153.551663,124.883816 151.842235,124.61409 150.086465,124.944146 C147.344417,125.459602 146.294524,124.806457 140.007329,118.673912 C138.89763,117.591514 136.81162,116.495163 135.371685,116.23758 C133.931801,115.98 130.532044,114.886082 127.816715,113.806641 C125.101336,112.727211 123.092252,112.138371 123.351983,112.498098 C123.972225,113.356987 132.067533,116.416452 135.245914,116.993162 L137.738145,117.445368 L136.395851,120.816983 C135.3148,123.532417 134.166118,124.615545 130.493531,126.382499 C127.096905,128.016657 125.661562,129.281522 124.867799,131.339981 C123.916862,133.806038 122.183014,133.870944 119.773906,132.776808 Z M171.358296,112.611152 C169.525083,111.149388 168.97331,110.058517 169.274012,108.490697 C169.33914,108.151231 168.770357,107.669189 168.010101,107.419489 C166.982025,107.081833 166.861052,106.59244 167.538071,105.509741 C168.140514,104.546285 168.121832,103.318957 167.482805,101.880407 C166.951755,100.68493 166.769883,98.7224427 167.07862,97.5193098 C167.511456,95.8325519 167.210495,95.1350822 165.763776,94.4724039 C164.731834,93.9997303 163.549285,93.7070913 163.135808,93.8220952 C162.722332,93.9370908 160.515097,93.3672791 158.230828,92.5558239 C155.946564,91.744377 153.211669,90.79844 152.153268,90.4537294 C151.024471,90.0860897 149.53579,88.2736407 148.55228,86.0695345 C146.903388,82.3741342 146.908137,82.2548752 148.842125,78.8478669 C151.341244,74.4452331 152.648416,74.3984886 151.719805,78.7449646 C151.282691,80.7906539 151.381111,82.7131713 151.97119,83.6568446 C152.913887,85.1644501 152.989666,85.1557337 154.705094,83.3425507 C155.926473,82.0515898 156.172742,81.2237491 155.505324,80.6525107 C153.912846,79.2895383 154.392339,78.1568293 157.355398,76.281844 C160.431753,74.335173 162.811626,74.5349825 165.466258,76.9627962 C167.412722,78.7429071 177.805393,81.1491442 180.783951,80.5093207 C182.197378,80.2056894 185.096664,80.9206126 189.116138,82.5638996 C195.122255,85.0194006 198.609271,87.2863276 196.380165,87.2863276 C195.810392,87.2863276 194.438402,88.9357418 193.331206,90.9516823 C191.712113,93.8997925 191.529774,94.9069835 192.399361,96.0987406 C194.076017,98.3965874 193.79833,98.7887436 188.86825,101.085308 C185.047451,102.865163 183.916721,103.078427 182.278842,102.328176 C179.115022,100.878972 178.05777,102.486754 179.750027,106.173928 C181.379192,109.723615 180.757704,110.912655 176.225701,112.916874 C173.504268,114.120411 173.229452,114.103155 171.358296,112.611152 Z M113.169467,87.968624 C110.317568,86.719167 109.459982,85.9219905 109.793455,84.830435 C110.202914,83.4903216 110.459721,83.4641888 112.845128,84.5199592 C115.127984,85.5303291 115.856302,85.5273357 118.740973,84.4957478 C123.30465,82.8637335 125.824748,83.0259396 128.928292,85.1514909 C131.433152,86.8670162 131.498594,87.0569177 130.020981,88.3216058 C127.838218,90.1897714 126.426724,90.0433735 127.65666,88.0763917 C128.499474,86.7285473 128.286606,86.3437387 126.261238,85.553922 C123.142509,84.3377268 118.848322,85.5449623 118.842842,87.639466 C118.837205,89.7931704 117.509836,89.8701833 113.169467,87.968624 Z M104.95011,84.1214163 C103.490134,82.8171333 101.57321,81.5537606 100.690211,81.3139149 C98.830275,80.8086722 97.5882848,78.5810845 98.65665,77.6666651 C99.0586957,77.3225482 101.087875,77.4103638 103.165899,77.8618113 C107.660739,78.8383011 110.280616,81.8940594 109.035025,84.7074157 C108.60031,85.6893893 108.100571,86.4928166 107.924596,86.4928166 C107.748621,86.4928166 106.410085,85.4256868 104.95011,84.1214163 Z M101.469305,76.8110754 C99.5598477,76.376937 96.9417957,74.9469505 95.6490775,73.6320297 L93.2994207,71.2420751 L95.705492,69.3335806 C97.9257229,67.5724529 102.253257,65.5684284 106.794126,64.1985497 C107.973441,63.8427848 108.142164,63.6130079 107.257702,63.5673189 C105.392704,63.4709766 97.7646725,66.7047575 95.7455697,68.4477102 C93.959009,69.9899216 92.0070163,69.5223565 92.8046903,67.7432888 C93.1150959,67.0509607 92.242796,66.0549848 90.5581042,65.1781112 L87.8041057,63.7446777 L89.8821297,62.128785 C93.4550406,59.350381 107.354665,58.8978079 108.531057,61.5215719 C108.786667,62.0916764 108.39772,65.7116802 107.66669,69.566021 C106.935709,73.420366 106.336033,76.8417271 106.3341,77.1690503 C106.329979,77.8696536 106.027192,77.8473761 101.469305,76.8110754 Z M85.2624555,68.5168766 C84.4095151,68.2212278 84.4898318,67.6502945 85.5855432,66.2190133 C86.9791393,64.3986272 87.1651861,64.3683836 89.7992031,65.5341853 C92.0434436,66.5274935 92.349571,66.9655696 91.4486198,67.8946963 C90.365066,69.0121371 87.5174948,69.2985294 85.2624555,68.5168766 Z M78.9406585,65.9701915 C77.3890969,65.160365 75.4033902,63.5622721 74.5280632,62.4188676 C73.6527363,61.2754589 71.6623838,59.7760092 70.105082,59.086757 C67.5130878,57.9395509 66.9327507,57.9449893 63.2428358,59.1510951 L59.2120346,60.4686176 L46.8451405,55.3396148 C39.2379554,52.1846361 33.3340947,49.1750204 31.5054632,47.5198998 C28.6701583,44.9536254 28.5784245,44.6749434 29.5218614,41.493762 C30.3861256,38.5795237 30.2393558,37.6779605 28.3595899,34.3542735 C27.1762867,32.2620417 24.5908834,29.0484767 22.6142482,27.213008 C20.637608,25.3775475 19.2448795,23.5648717 19.5192932,23.1848501 C19.7937065,22.8048285 18.4013386,20.2436133 16.4251419,17.4932634 C14.180121,14.368784 12.5957109,11.021867 12.2021135,8.57250383 C11.6975617,5.43265111 11.1096728,4.4720216 9.24852727,3.7462388 C7.27567561,2.97689167 6.72401489,3.07494183 5.59440689,4.39571918 C4.00345297,6.25590765 4.45572904,8.21975217 7.97351639,14.7261239 C9.40303137,17.3700956 10.8803436,21.2895993 11.2564376,23.4361335 C11.632532,25.5826677 12.7434048,28.6863498 13.7250372,30.3332158 C16.0501489,34.2339837 14.5488515,34.1651595 10.8822589,30.2028984 C8.71971357,27.8659597 8.13566604,26.5843006 8.56543412,25.1187475 C9.02430682,23.5539494 8.57295413,22.8003631 6.32485418,21.3778066 C2.91599085,19.2207418 2.19452503,17.8292535 3.44670912,15.8267257 C4.17691648,14.6589531 3.8420863,13.3782919 1.98767245,10.2461804 C0.0825483253,7.02842427 -0.291901677,5.53707531 0.191023883,3.09060457 C0.779387265,0.110005336 0.93114105,0 4.45455499,0 C6.67144217,0 10.2745339,0.936044611 13.6178926,2.38053812 C17.9056744,4.23306159 20.3553402,4.76107088 24.662259,4.76107088 C27.7062274,4.76107088 30.4545948,4.4039907 30.76974,3.96755982 C31.6355275,2.76857682 35.6521807,3.01590153 38.1606868,4.4226613 C39.3852624,5.10940043 40.6458482,6.67923875 40.9619981,7.91118579 C41.2781398,9.14313778 42.3220247,10.7593026 43.2817442,11.5026674 C44.8885681,12.7472508 45.1942867,12.7537654 47.1439956,11.5849456 C51.4881676,8.98068017 54.4298358,10.6530481 56.6597878,16.9947786 C58.1118715,21.1243173 60.4246715,23.8053647 62.5349435,23.8053647 C63.4514344,23.8053647 63.6695682,24.2486112 63.218339,25.194008 C59.2372458,33.5349472 58.9003198,35.3908711 60.4424577,40.4844888 C63.1934168,49.5708049 67.0167262,52.2890723 74.9879316,50.8259271 C80.9959284,49.7231277 84.6040153,47.4885388 85.9303402,44.048912 C86.7726344,41.864494 87.6812046,41.1424048 90.4009192,40.4958852 C98.0984104,38.6660653 99.5722158,39.6944948 96.9605275,45.0732225 C95.8669553,47.3254751 94.604507,48.9737513 94.1551775,48.7360496 C93.7057983,48.4983563 92.1682236,49.0168839 90.7383035,49.8883273 C89.3084412,50.7597665 87.0337244,51.7100823 85.6834973,52.0001401 C82.5308973,52.6773526 81.2144876,54.0679916 81.5189466,56.3994465 C81.6918902,57.7232733 81.2281607,58.3437961 79.9074727,58.555934 C77.7103593,58.9088498 75.7059703,60.9063597 75.8085702,62.6407403 C75.8488586,63.3210864 76.300794,62.8957552 76.8129555,61.6955661 C77.3564813,60.421972 78.4367439,59.5134076 79.4076257,59.5134076 C81.7302501,59.5134076 83.1729513,57.7683232 82.5462429,55.7170758 C82.1327665,54.3639373 82.5582972,53.811179 84.4996437,53.1794535 C87.8980955,52.073574 89.0057579,52.1661065 88.4051404,53.505717 C88.125525,54.1293693 87.6052737,55.9694972 87.2489964,57.5948856 C86.6477511,60.3379003 86.7437231,60.5182443 88.5853438,60.1060619 C89.6765664,59.8618168 90.5523104,59.8963649 90.5313857,60.1828273 C90.4691774,61.0352381 83.4323729,67.4487821 82.5628893,67.4455631 C82.1222236,67.4439373 80.4922243,66.7800097 78.9406585,65.9701915 Z M154.27398,51.4977671 C153.362172,51.0435901 151.459446,50.8894242 150.045759,51.1551758 C148.632072,51.4209233 146.457659,51.2899215 145.213737,50.8640501 C143.21368,50.1793128 143.390749,50.0985231 146.744374,50.1656238 C151.673566,50.2642463 152.989405,49.5771876 151.729666,47.5625665 C150.875685,46.1968687 151.084065,46.0237032 153.581409,46.0237032 C156.246323,46.0237032 156.395423,46.1918631 156.395423,49.1977515 C156.395423,50.9434791 156.291101,52.3609435 156.163661,52.347671 C156.036168,52.3343985 155.185837,51.9519442 154.27398,51.4977671 Z M174.010847,51.5782847 C172.967998,51.0014759 173.431831,50.8090757 175.865092,50.8090757 C178.298348,50.8090757 178.762185,51.0014759 177.719337,51.5782847 C176.954489,52.0013523 176.120074,52.3474937 175.865092,52.3474937 C175.610159,52.3474937 174.775694,52.0013523 174.010847,51.5782847 Z M157.322572,48.7018066 C157.322572,45.9298347 157.42345,45.8425964 160.099948,46.3007523 C161.627558,46.5622406 163.983323,47.3963939 165.335061,48.1544332 L167.79269,49.5326778 L163.252969,50.5401739 C157.134283,51.8980913 157.322572,51.9564632 157.322572,48.7018066 Z M137.178964,44.3471708 C135.533462,43.9402331 133.762561,42.928251 133.243615,42.0983157 C132.259217,40.5239971 124.229454,37.0295072 119.59407,36.1581339 C117.984839,35.8556282 115.54386,36.1413072 113.503568,36.8709378 C109.574062,38.2761686 109.111947,38.3334809 109.111947,37.4155857 C109.111947,35.7546762 116.490683,33.9281341 121.803812,34.2738302 C126.885234,34.6044478 129.730298,35.5300162 139.707148,40.0982948 C147.907827,43.8532834 147.916854,43.8604371 145.269891,44.5063752 C142.191132,45.2576855 140.745615,45.2292438 137.178964,44.3471708 Z" id="path2418" fill-opacity="0.293241914" fill="#DFEDFF" opacity="0.78031994"></path>
                    <path d="M123.001,132.938 L123.58454,132.939577 C123.485852,132.965757 123.384652,132.985816 123.280962,133 L123.001,132.938 Z M154.177832,73.0337627 C155.618696,73.3200383 155.477716,73.5269407 153.333585,74.2726687 C151.742155,74.8261751 149.988992,76.5073607 148.74082,78.67688 L146.722078,82.1858664 L148.576511,86.0043565 C149.682495,88.2818019 151.347231,90.1948506 152.70147,90.7446416 C156.445933,92.2648352 163.193098,94.5307198 164.263005,94.6273479 C164.813286,94.6770475 165.823259,94.7718569 166.507356,94.8380478 C167.372036,94.9217029 167.574155,95.6390833 167.170438,97.191385 C166.850985,98.4195267 167.028091,100.398257 167.563991,101.588568 C168.23982,103.089659 168.239295,104.224667 167.562307,105.292925 C166.80364,106.490009 166.913915,106.939285 168.057446,107.309839 C169.355701,107.730549 169.332952,107.909482 167.863908,108.831835 C167.009297,109.368381 165.56624,109.663421 164.540896,109.528751 L164.32794,109.493247 C163.298793,109.282141 161.661073,109.601296 160.688589,110.20247 C159.284009,111.070772 159.126123,111.60587 159.920762,112.80497 C160.678534,113.948414 160.583631,114.629331 159.529418,115.613027 C158.296573,116.763433 158.30605,117.251664 159.61231,119.891753 C160.853636,122.400672 160.914937,123.609654 159.999808,127.537675 C159.049027,131.618962 158.742421,132.059583 157.552758,131.054938 C156.495436,130.16204 156.424813,129.540196 157.235459,128.261037 C158.120096,126.865142 157.926929,126.421294 155.961429,125.33374 C154.441252,124.492583 152.716214,124.224022 150.944411,124.552653 C148.177324,125.065881 147.117844,124.415558 140.773237,118.309511 C139.653405,117.23179 137.548346,116.140176 136.095263,115.883706 C134.64223,115.627239 131.211428,114.538048 128.471304,113.46327 C125.73113,112.388505 123.385899,111.293018 123.467664,111.751004 C123.507716,111.97535 123.548236,112.195873 123.589214,112.41264 L123.318,112.411 L123.318436,111.740921 C123.72503,111.289343 124.150097,110.827193 124.593604,110.354562 C127.045604,107.741531 129.533789,104.092002 130.12288,102.244499 C131.152023,99.0168785 130.735354,94.2440706 129.214173,91.8359514 C128.707236,91.03352 130.00865,89.4461626 133.544306,86.5543323 C136.324452,84.2804052 138.599138,82.0242667 138.599138,81.540683 C138.599138,80.1062875 143.395288,76.7864642 145.467588,76.7864642 C146.522118,76.7864642 148.524057,75.8647842 149.916422,74.738275 C151.394364,73.5425821 153.167959,72.8331333 154.177832,73.0337627 Z M138.483332,117.086275 L138.382,117.337 L138.281,117.337 L138.483332,117.086275 Z M124.779715,117.337315 L124.687,117.337 L124.687269,117.034529 C124.717929,117.136763 124.748745,117.237686 124.779715,117.337315 Z" id="Combined-Shape" fill="#FDFEFF"></path>
                </g>
            </g>
        </g>
    </g>
</svg>