<svg id="Layer_1" data-name="Layer 1" xmlns="http://www.w3.org/2000/svg" xmlns:xlink="http://www.w3.org/1999/xlink" viewBox="0 0 500 500"><defs><style>.cls-1{fill:none;}.cls-2{clip-path:url(#clip-path);}.cls-3{fill:#5bc1f7;}.cls-4{fill:#fff;}.cls-5{fill:#92d15f;}.cls-6{fill:#009591;}.cls-7{fill:#fe7751;}.cls-8{fill:#f23765;}.cls-9{fill:#3d51c9;}.cls-10{fill:#6670e1;}.cls-11{clip-path:url(#clip-path-2);}.cls-12{fill:#f7df1e;}.cls-13{font-size:106.32px;font-family:NeutraText-Bold, Neutra Text;font-weight:700;letter-spacing:0.02em;}.cls-14{clip-path:url(#clip-path-3);}</style><clipPath id="clip-path"><rect class="cls-1" width="500" height="500"/></clipPath><clipPath id="clip-path-2"><rect class="cls-1" x="-0.26" y="-0.26" width="500.26" height="500.26"/></clipPath><clipPath id="clip-path-3"><rect class="cls-1" x="54.47" y="682.89" width="400" height="400"/></clipPath></defs><title>Logo MedellinJS</title><g class="cls-2"><rect class="cls-3" x="-0.26" y="-0.26" width="500.26" height="500.26"/><path class="cls-4" d="M50-219.31,238.28-1.12,20.09,187.13-168.16-31.07,50-219.31m.85-11.43L-179.58-31.91,19.25,198.55,249.71-.28,50.88-230.74Z"/><path class="cls-5" d="M62.56,38.94l0,11.43L63.42,524H-21.2L-6.68,129C33.29,114.64,60.08,83.24,62.56,38.94Z"/><path class="cls-6" d="M62.61-2.23l-.18-.67L64,488.67h84.62L134.46,102.52a13.7,13.7,0,0,0-8-12A108.51,108.51,0,0,1,62.61-2.23Z"/><rect class="cls-7" x="160.05" y="465.76" width="89.32" height="51.04"/><polygon class="cls-7" points="160.05 516.8 -10.48 516.8 -10.48 422.26 160.05 447.78 160.05 516.8"/><rect class="cls-7" x="160.05" y="450.68" width="44.66" height="66.12"/><circle class="cls-7" cx="162.66" cy="450.47" r="42.05"/><path class="cls-8" d="M-94.89,273.5H42.6A50.4,50.4,0,0,1,93,323.9V461.4a0,0,0,0,1,0,0H-44.49A50.4,50.4,0,0,1-94.89,411V273.5a0,0,0,0,1,0,0Z" transform="translate(-261.43 626.6) rotate(-135)"/><path class="cls-7" d="M-.94,500.31V407.72a95.31,95.31,0,0,1,95.31-95.31H187"/><polygon class="cls-9" points="521.89 115.76 449.5 115.76 449.5 0.79 521.89 34.85 521.89 115.76"/><polygon class="cls-10" points="249.37 64.66 449.5 0.79 449.5 115.76 249.37 115.76 249.37 64.66"/><g class="cls-11"><ellipse class="cls-12" cx="496.65" cy="506.38" rx="368.28" ry="502.44" transform="translate(-212.6 499.5) rotate(-45)"/></g><path d="M335.79,390.57C345.86,407,359,419.12,382.16,419.12c19.48,0,31.92-9.74,31.92-23.19,0-16.12-12.78-21.83-34.22-31.21l-11.75-5c-33.93-14.45-56.46-32.56-56.46-70.83,0-35.26,26.86-62.1,68.84-62.1,29.89,0,51.38,10.41,66.86,37.64l-36.6,23.51c-8.06-14.46-16.76-20.15-30.26-20.15-13.77,0-22.49,8.74-22.49,20.15,0,14.1,8.73,19.81,28.9,28.54l11.75,5c39.94,17.13,62.5,34.59,62.5,73.85,0,42.32-33.25,65.51-77.9,65.51-43.66,0-71.86-20.81-85.67-48.08Zm-166.07,4.07c7.39,13.11,14.11,24.18,30.26,24.18,15.44,0,25.19-6,25.19-29.54V229.44h47V389.92c0,48.67-28.53,70.83-70.19,70.83-37.64,0-59.44-19.48-70.52-42.94Z"/><text class="cls-13" transform="translate(217.86 212.36)">MED</text><rect class="cls-4" x="180.71" y="29.78" width="26.88" height="26.88" rx="13.44"/></g><g class="cls-14"><path class="cls-4" d="M94.5,507.44,245.1,682,70.54,832.59-80.06,658,94.5,507.44m.67-9.14L-89.2,657.36,69.87,841.73,254.24,682.66,95.17,498.3Z"/></g></svg>