<svg id="Layer_1" data-name="Layer 1" xmlns="http://www.w3.org/2000/svg" viewBox="0 0 645 645"><defs><style>.cls-1{fill:#29abe2;}.cls-2,.cls-4{fill:#fff;}.cls-3{stroke:#000;stroke-width:10px;}.cls-3,.cls-4{stroke-miterlimit:10;}.cls-4{stroke:#fff;stroke-width:16px;}</style></defs><title>logo-react-cali</title><path d="M943.5,908a312.5,312.5,0,1,1,221-91.53A310.46,310.46,0,0,1,943.5,908Z" transform="translate(-621 -273)"/><path d="M943.5,293a301.45,301.45,0,1,1-117.74,23.76A300.72,300.72,0,0,1,943.5,293m0-20C765.39,273,621,417.39,621,595.5S765.39,918,943.5,918,1266,773.61,1266,595.5,1121.61,273,943.5,273Z" transform="translate(-621 -273)"/><ellipse class="cls-1" cx="318.6" cy="325.91" rx="44.98" ry="46.09"/><path class="cls-1" d="M933.12,524.17c64.57,0,125.06,8.63,170.31,24.32,45.68,15.83,62,34,62,45.72s-16.28,29.9-62,45.73c-45.25,15.68-105.74,24.32-170.31,24.32s-125.07-8.64-170.32-24.32c-45.68-15.83-62-34-62-45.73s16.28-29.89,62-45.72c45.25-15.69,105.74-24.32,170.32-24.32m0-16c-137.12,0-248.28,38.52-248.28,86s111.16,86,248.28,86,248.27-38.53,248.27-86-111.16-86-248.27-86Z" transform="translate(-621 -273)"/><path class="cls-1" d="M810.63,401.07c18.5,0,46.94,14.74,78,40.42,33.87,28,69.76,68,101.07,112.73,37,52.9,64.66,107.4,77.77,153.46,13.23,46.51,7.68,70.26-1.92,77-2.94,2.06-6.71,3.06-11.52,3.06-18.5,0-46.94-14.73-78-40.42-33.87-28-69.76-68-101.07-112.73-37-52.9-64.66-107.4-77.76-153.46-13.24-46.5-7.69-70.25,1.91-77,2.94-2.06,6.71-3.06,11.52-3.06m0-16c-8,0-15,1.93-20.69,6-38.93,27.25-6.73,140.4,71.92,252.72,67,95.74,146.18,160,192.19,160,8,0,15-1.93,20.69-6,38.93-27.26,6.73-140.41-71.91-252.73-67-95.73-146.18-160-192.2-160Z" transform="translate(-621 -273)"/><path class="cls-1" d="M1056.4,383.14v16c4.81,0,8.58,1,11.52,3.06,9.6,6.72,15.15,30.48,1.91,77-13.1,46.06-40.72,100.56-77.76,153.46-31.31,44.71-67.2,84.75-101.07,112.73-31.08,25.69-59.52,40.42-78,40.42-4.81,0-8.58-1-11.52-3.06-9.6-6.72-15.15-30.48-1.92-77,13.11-46.06,40.73-100.56,77.77-153.46,31.31-44.71,67.2-84.75,101.07-112.73,31.08-25.69,59.52-40.42,78-40.42v-16m0,0c-46,0-125.16,64.24-192.19,160-78.65,112.32-110.85,225.47-71.92,252.73,5.74,4,12.72,5.95,20.69,5.95,46,0,125.16-64.23,192.19-160,78.65-112.32,110.85-225.47,71.92-252.73-5.74-4-12.72-5.95-20.69-5.95Z" transform="translate(-621 -273)"/><ellipse class="cls-2" cx="326.44" cy="316.91" rx="44.98" ry="46.09"/><path class="cls-2" d="M947.79,522.88c64,0,123.94,8.54,168.68,24,20.16,7,36.34,15.21,46.77,23.76,4.41,3.61,11.82,10.66,11.82,17.24s-7.41,13.64-11.82,17.25c-10.43,8.55-26.61,16.77-46.77,23.76-44.74,15.5-104.65,24-168.68,24s-123.94-8.54-168.68-24c-20.17-7-36.34-15.21-46.77-23.76-4.42-3.61-11.82-10.66-11.82-17.25s7.4-13.63,11.82-17.24c10.43-8.55,26.6-16.77,46.77-23.76,44.74-15.5,104.64-24,168.68-24m0-21c-137.12,0-248.27,38.52-248.27,86S810.67,674,947.79,674s248.27-38.52,248.27-86.05-111.15-86-248.27-86Z" transform="translate(-621 -273)"/><path class="cls-2" d="M825.3,399.79c17.1,0,45.08,14.68,74.84,39.27,33.53,27.7,69.1,67.39,100.16,111.74,36.73,52.46,64.09,106.42,77,152,5.84,20.52,8.39,38.48,7.37,51.93-.43,5.69-2,15.81-7.35,19.58-2.07,1.45-4.9,2.15-8.65,2.15-17.1,0-45.07-14.68-74.83-39.27-33.53-27.7-69.1-67.39-100.16-111.74C857,573,829.64,519,816.68,473.45c-5.84-20.52-8.39-38.48-7.37-51.93.43-5.7,2-15.81,7.35-19.58,2.06-1.45,4.89-2.15,8.64-2.15m0-21c-8,0-14.94,1.92-20.69,5.95-38.93,27.25-6.73,140.4,71.92,252.72,67,95.74,146.18,160,192.19,160,8,0,15-1.92,20.7-5.95,38.92-27.26,6.73-140.4-71.92-252.72-67-95.74-146.18-160-192.2-160Z" transform="translate(-621 -273)"/><path class="cls-2" d="M1071.07,376.85v21c3.75,0,6.58.71,8.65,2.16,5.39,3.77,6.92,13.88,7.35,19.57,1,13.45-1.53,31.41-7.37,51.94-13,45.54-40.33,99.51-77.06,152-31,44.35-66.62,84-100.15,111.74-29.76,24.59-57.74,39.27-74.84,39.27-3.75,0-6.58-.7-8.65-2.15-5.39-3.78-6.91-13.89-7.35-19.58-1-13.45,1.53-31.41,7.38-51.94,13-45.54,40.32-99.51,77.05-152,31.06-44.36,66.63-84,100.15-111.74,29.77-24.59,57.74-39.28,74.84-39.28v-21m0,0c-46,0-125.16,64.24-192.19,160C800.23,649.14,768,762.29,807,789.55c5.75,4,12.72,6,20.69,6,46,0,125.16-64.23,192.2-160,78.64-112.32,110.84-225.47,71.92-252.73-5.75-4-12.73-5.95-20.7-5.95Z" transform="translate(-621 -273)"/><path class="cls-3" d="M419,333" transform="translate(-621 -273)"/><path class="cls-4" d="M959.3,534.76" transform="translate(-621 -273)"/><path d="M927,622.69s-.52-1.57.57-1.76,3.26-.3,3.45-1.35.28-9.71.2-12.22a65.12,65.12,0,0,0-.7-6.65c-.2-1.4-.75-4.29,0-6.69s2.82-8.23,2.82-9.23-.82-2.31-1.83-3.68c0,0-4.74-6,4.15-15.44l3.2,4,3.8-3.88s6.66,8.09,3.26,14.69c-1.74,3.66-2.17,5.06-.69,7.28,1.38,2.06,3.95,5.18,5.44,7.64s6.08,8.23,6.63,10.2a2.91,2.91,0,0,1,.2-1.72,12.34,12.34,0,0,0,1.17-6.23,45.2,45.2,0,0,0-2.72-8.26c-.8-1.91-1.74-7.06.29-9.86s5.06-5.57,9.86-4.43,6.37,6.18,6.4,9.52-1.23,5.69-4.89,7.46a8.31,8.31,0,0,0,.95,4.63c1.25,2.29,3.08,5.59,3.6,7.63a14.69,14.69,0,0,1-2.89,12.81c-3.63,4.34-4.17,4.57-4.17,5l-6.37.34s-1.6.06-3.43.26-5.64.31-7.84.4-6.17.23-6.71-.12-.72-.82-.12-1.42a10,10,0,0,1,3-1.18s-4.88-2.65-4.88-6.86c0,0-.63,0-.8,1.06s-.57,5.15-.8,6.35-.43,1.79-1.15,1.83c-1.54.08-7.14.14-8,.14S927.08,623,927,622.69Z" transform="translate(-621 -273)"/><path d="M973,627.85,949,636l-17-4-10.36-4.34a44.08,44.08,0,0,0,51.34.19Z" transform="translate(-621 -273)"/><path d="M973,626.13v.37a2.52,2.52,0,0,1-1.11,2.11,44.09,44.09,0,0,1-49.15-.19,2.56,2.56,0,0,1-1.09-2.08h0a2.55,2.55,0,0,1,.88-2l2.77-2.39a2.58,2.58,0,0,1,1.67-.62h35.81a2.44,2.44,0,0,1,.71.1l1.66.48,6,1.72A2.54,2.54,0,0,1,973,626.13Z" transform="translate(-621 -273)"/></svg>