<svg width="670" height="228" viewBox="0 0 670 228" fill="none" xmlns="http://www.w3.org/2000/svg">
<rect width="670" height="228" fill="white"/>
<path d="M128.254 209.501C135.483 209.501 141.313 203.555 141.313 196.443V31.3443C141.313 24.1154 135.366 18.2856 128.254 18.2856C121.025 18.2856 115.195 24.232 115.195 31.3443V196.326C115.195 203.555 121.025 209.501 128.254 209.501Z" fill="#F16622"/>
<path d="M108.317 202.972C101.088 208.335 93.9755 212.3 87.4462 214.632C79.5177 217.43 73.2216 217.546 69.4906 215.331C61.4455 210.667 58.0643 192.712 62.6115 168.577C63.1944 165.778 63.7774 162.863 64.477 160.065C71.8225 161.697 79.6343 162.98 87.9126 163.913C87.6794 161.931 87.4462 159.949 87.4462 157.966V152.836C80.3339 151.903 73.688 150.854 67.3918 149.455C69.6071 142.109 72.4054 134.531 75.6701 126.836C78.002 131.266 80.4505 135.697 82.899 140.127C84.4147 142.692 85.9304 145.141 87.4462 147.706V125.786C85.3475 121.939 83.3654 117.974 81.4998 114.127C83.3654 110.162 85.3475 106.198 87.4462 102.351V80.3142C85.9304 82.8793 84.4147 85.3278 82.899 87.8929C80.3339 92.2069 78.002 96.6375 75.6701 101.185C72.522 93.606 69.7238 86.1439 67.5084 79.0316C73.8046 77.6325 80.5671 76.4666 87.4462 75.5338V69.8206C87.4462 67.9551 87.5628 66.0896 87.796 64.2241C79.6343 65.2734 71.8225 66.6726 64.477 68.3049C63.7774 65.7398 63.1944 63.0581 62.7281 60.3765C57.9477 35.7749 61.0957 17.2363 69.1408 12.5725C76.4862 8.37513 91.2938 12.9223 107.967 25.2814C109.016 21.6669 111.115 18.5189 113.797 15.9538C94.2087 1.49603 75.5535 -3.86734 63.6608 3.01176C50.2524 10.707 46.2882 33.6762 52.0013 62.4752C52.5843 65.2734 53.1673 68.1883 53.8668 70.9866C50.6022 71.9193 47.4541 72.9687 44.4227 74.0181C17.256 83.4622 0 98.2698 0 113.66C0 129.517 18.6552 145.491 46.8712 155.168C49.2031 155.984 51.4183 156.684 53.7502 157.383C53.0507 160.415 52.3511 163.446 51.7681 166.478C46.4048 194.694 50.6022 217.08 63.894 224.775C75.7867 231.654 94.7917 226.408 114.263 212.183C111.581 209.735 109.483 206.586 108.317 202.972ZM56.8983 146.773C54.7996 146.19 52.7009 145.491 50.6022 144.791C38.1265 140.477 27.7496 134.997 20.7539 128.934C14.3412 123.454 11.1931 118.091 11.1931 113.66C11.1931 104.333 25.0679 92.4401 48.2703 84.2784C51.1852 83.2291 54.1 82.2963 57.1315 81.4801C60.3962 91.8571 64.5936 102.817 69.6072 113.894C64.3604 125.087 60.0464 136.163 56.8983 146.773Z" fill="#F16622"/>
<path d="M210.804 73.7849C208.122 72.8521 205.324 72.0359 202.525 71.2198C202.992 69.3542 203.458 67.4887 203.808 65.6232C210.104 35.3085 206.023 10.8236 192.032 2.89515C180.256 -3.86735 161.834 1.49602 142.479 16.0704C145.161 18.6355 147.259 21.7835 148.309 25.398C164.749 12.8057 179.44 8.25852 186.552 12.3393C195.18 17.2363 198.445 37.2907 193.081 63.4079C192.731 65.1568 192.382 66.7892 191.915 68.5381C184.57 66.7892 176.641 65.39 168.48 64.3407C168.713 66.2062 168.829 68.0717 168.829 69.9372V75.5338C175.825 76.4665 182.588 77.7491 188.884 79.1482C186.668 86.2605 183.87 93.606 180.722 101.185C178.39 96.6375 175.942 92.2068 173.377 87.8928C171.861 85.3277 170.345 82.8793 168.829 80.3142V102.234C170.928 106.082 172.91 110.046 174.892 113.894C172.91 117.858 170.928 121.822 168.829 125.786V147.823C170.345 145.258 171.861 142.692 173.377 140.127C175.942 135.697 178.39 131.15 180.839 126.602C184.22 134.414 187.135 141.993 189.467 149.105C183.054 150.621 176.058 151.787 168.829 152.72V158.083C168.829 160.065 168.713 161.931 168.363 163.796C176.758 162.747 184.92 161.348 192.382 159.599C192.848 161.697 193.314 163.796 193.781 165.778C196.346 178.72 196.696 190.496 195.063 199.591C193.548 207.869 190.516 213.349 186.668 215.448C179.44 219.645 164.749 215.098 148.309 202.506C147.259 206.12 145.161 209.268 142.479 211.833C161.834 226.524 180.372 231.771 192.265 224.892C206.023 216.963 210.454 192.828 204.624 163.563C204.158 161.348 203.691 159.016 203.108 156.684C204.741 156.217 206.373 155.751 207.889 155.168C237.271 145.491 256.392 129.75 256.392 113.544C256.392 98.2698 238.553 83.3456 210.804 73.7849ZM204.507 144.908C203.108 145.374 201.709 145.841 200.193 146.307C196.929 136.047 192.615 125.087 187.251 113.894C192.382 102.934 196.579 92.0903 199.727 81.9465C202.292 82.7627 204.857 83.4622 207.306 84.395C230.975 92.5566 245.549 104.683 245.549 113.894C245.432 123.571 229.809 136.396 204.507 144.908Z" fill="#F16622"/>
<path d="M142.829 40.5554V187.348C153.555 181.985 161.017 170.792 161.017 158.083V69.8207C161.017 56.9953 153.555 45.9188 142.829 40.5554Z" fill="#1E459C"/>
<path d="M113.68 40.5554C102.953 45.9188 95.4912 57.1119 95.4912 69.8207V157.966C95.4912 170.792 102.953 181.868 113.68 187.232V40.5554Z" fill="#1E459C"/>
<path d="M132.801 183.268C131.752 183.268 130.819 182.335 130.819 181.286C130.819 179.42 130.12 179.07 126.855 178.371C123.357 177.671 118.11 176.505 118.11 168.577C118.11 160.998 123.357 159.715 127.205 158.783C131.052 157.85 132.685 157.267 132.685 153.886C132.685 150.038 130.469 149.105 126.622 147.939C123.474 146.89 119.043 145.607 119.043 140.361C119.043 135.114 123.474 133.598 126.622 132.549C130.353 131.383 132.452 130.45 132.452 126.952C132.452 123.804 130.936 123.338 127.438 122.522C124.057 121.706 119.043 120.54 119.043 113.544C119.043 106.432 124.29 104.799 127.788 103.866C131.169 102.817 132.452 102.351 132.452 100.135C132.452 98.0367 131.752 97.687 128.604 96.9874C125.456 96.2878 120.675 95.2385 120.675 88.3594C120.675 81.4803 125.922 79.6147 129.653 78.2156C133.151 76.9331 134.2 76.3501 134.2 74.7178C134.2 73.3186 133.268 72.8522 130.003 71.8029C126.155 70.6369 120.442 68.888 120.442 60.843C120.442 50.3494 129.77 45.569 134.667 44.4031C135.716 44.1699 136.766 44.8695 136.999 45.9188C137.232 46.9682 136.532 48.0175 135.483 48.2507C135.017 48.3673 124.29 50.9324 124.29 60.843C124.29 65.74 126.855 66.6727 131.052 67.9553C134.2 68.888 138.048 70.054 138.048 74.6012C138.048 79.1484 134.084 80.6641 130.819 81.8301C126.855 83.2292 124.406 84.3951 124.406 88.2428C124.406 91.7406 125.922 92.3236 129.187 93.0232C131.985 93.6061 136.183 94.6555 136.183 100.019C136.183 105.266 131.869 106.548 128.72 107.481C124.873 108.647 122.774 109.463 122.774 113.427C122.774 117.042 124.523 117.625 128.138 118.557C131.402 119.374 136.183 120.423 136.183 126.836C136.183 133.482 131.286 135.114 127.671 136.28C124.173 137.446 122.774 138.029 122.774 140.244C122.774 142.343 124.057 142.926 127.555 144.092C131.286 145.258 136.416 146.89 136.416 153.886C136.416 160.532 131.519 161.698 127.904 162.63C123.94 163.563 121.841 164.379 121.841 168.577C121.841 173.357 124.057 173.823 127.438 174.523C130.236 175.106 134.55 176.039 134.55 181.286C134.783 182.335 133.967 183.268 132.801 183.268Z" fill="#1E459B"/>
<path d="M306.877 75.7671H299.765V95.0052H286.707V40.5554H308.16C314.573 40.5554 319.703 41.9546 323.317 44.8694C326.932 47.7843 328.797 51.7485 328.797 56.9953C328.797 60.7263 327.981 63.8744 326.465 66.4395C324.95 68.888 322.501 70.9867 319.237 72.5024L330.546 94.4223V95.0052H316.555L306.877 75.7671ZM299.765 65.6233H308.043C310.492 65.6233 312.357 64.9237 313.64 63.6412C314.923 62.3587 315.505 60.4931 315.505 58.1612C315.505 55.8293 314.923 53.9638 313.64 52.6813C312.357 51.3987 310.492 50.6992 308.043 50.6992H299.765V65.6233Z" fill="#1E459B"/>
<path d="M370.305 71.9194H349.668V84.8615H374.036V94.8886H336.609V40.5554H374.152V50.6992H349.668V62.1255H370.305V71.9194V71.9194Z" fill="#1E459B"/>
<path d="M410.297 84.7449H392.225L389.077 94.8886H375.085L395.023 40.5554H407.382L427.437 94.8886H413.329L410.297 84.7449ZM395.373 74.7177H407.032L401.203 55.8293L395.373 74.7177Z" fill="#1E459B"/>
<path d="M474.658 76.5831C474.541 80.3141 473.492 83.6954 471.626 86.6103C469.761 89.5251 467.195 91.7404 463.814 93.3728C460.433 95.0051 456.585 95.7047 452.271 95.7047C445.159 95.7047 439.446 93.3728 435.365 88.709C431.284 84.0452 429.186 77.5159 429.186 69.0044V66.3228C429.186 60.9594 430.118 56.2956 431.984 52.3314C433.849 48.3671 436.531 45.2191 440.029 43.1204C443.527 40.9051 447.491 39.8557 452.155 39.8557C458.801 39.8557 464.047 41.6046 468.012 45.1025C471.976 48.6003 474.308 53.3807 474.891 59.4437H461.832C461.716 56.179 460.899 53.7305 459.384 52.3314C457.868 50.9322 455.419 50.1161 452.155 50.1161C448.89 50.1161 446.558 51.282 444.926 53.7305C443.294 56.179 442.594 60.0266 442.594 65.39V69.2376C442.594 75.0674 443.294 79.1482 444.809 81.7133C446.208 84.1618 448.773 85.4443 452.388 85.4443C455.419 85.4443 457.751 84.7447 459.267 83.3456C460.899 81.9465 461.716 79.7312 461.832 76.5831H474.658Z" fill="#1E459B"/>
<path d="M522.461 50.6992H506.138V95.0052H493.079V50.6992H477.106V40.5554H522.578V50.6992H522.461Z" fill="#1E459B"/>
<path d="M320.636 164.962L299.649 134.647V164.962H287.523V114.01H299.649L320.636 144.325V114.01H332.762V164.962H320.636V164.962Z" fill="#1E459B"/>
<path d="M342.672 114.01H374.386V123.921H355.148V134.181H373.453V144.091H355.148V154.935H374.619V164.845H342.672V114.01Z" fill="#1E459B"/>
<path d="M432.917 149.338L440.845 114.01H453.671L439.563 164.962H426.737L416.36 126.719L405.983 164.962H393.158L379.05 114.01H391.875L399.804 149.338L409.248 114.01H423.123L432.917 149.338Z" fill="#1E459B"/>
<path d="M499.259 146.423V164.962H486.667V146.423L469.877 114.01H483.286L492.963 135.463L502.641 114.01H516.049L499.259 146.423Z" fill="#1E459B"/>
<path d="M568.75 139.428C568.75 143.042 568.167 146.423 567.001 149.688C565.835 152.836 564.086 155.634 561.871 158.083C559.655 160.531 556.974 162.397 553.709 163.796C550.444 165.195 546.83 165.895 542.749 165.895C538.668 165.895 534.937 165.195 531.673 163.796C528.408 162.397 525.726 160.531 523.511 158.083C521.296 155.634 519.663 152.836 518.497 149.688C517.332 146.54 516.749 143.042 516.749 139.428C516.749 135.813 517.332 132.432 518.497 129.167C519.663 126.019 521.296 123.221 523.511 120.773C525.726 118.324 528.408 116.459 531.673 115.059C534.937 113.66 538.552 112.961 542.749 112.961C546.83 112.961 550.561 113.66 553.709 115.059C556.974 116.459 559.655 118.324 561.871 120.773C564.086 123.221 565.835 126.019 567.001 129.167C568.167 132.432 568.75 135.813 568.75 139.428ZM542.749 155.868C544.964 155.868 546.83 155.518 548.579 154.702C550.211 153.886 551.727 152.72 552.776 151.32C553.942 149.921 554.759 148.172 555.341 146.074C555.924 144.092 556.158 141.876 556.158 139.428C556.158 136.979 555.924 134.881 555.341 132.782C554.759 130.8 553.942 129.051 552.776 127.535C551.61 126.019 550.211 124.97 548.579 124.154C546.947 123.338 544.964 122.988 542.749 122.988C540.534 122.988 538.552 123.454 536.919 124.154C535.287 124.97 533.888 126.136 532.722 127.535C531.556 128.934 530.74 130.683 530.157 132.782C529.574 134.764 529.341 136.979 529.341 139.428C529.341 141.876 529.574 143.975 530.157 146.074C530.74 148.056 531.556 149.805 532.722 151.32C533.888 152.72 535.287 153.886 536.919 154.702C538.552 155.518 540.417 155.868 542.749 155.868Z" fill="#1E459B"/>
<path d="M614.688 130.1C614.688 133.481 613.755 136.513 611.773 139.078C609.908 141.643 607.226 143.509 603.728 144.908L620.518 164.962H605.011L591.019 147.24H588.687V164.962H576.095V114.01H592.302C595.45 114.01 598.365 114.36 601.046 115.059C603.728 115.759 606.06 116.692 608.042 118.091C610.024 119.373 611.54 121.122 612.706 123.104C614.105 124.97 614.688 127.302 614.688 130.1ZM602.562 130.333C602.562 128.001 601.629 126.369 599.881 125.203C598.132 124.154 595.567 123.571 592.419 123.571H588.804V137.912H591.836C595.217 137.912 597.782 137.212 599.764 135.93C601.629 134.647 602.562 132.782 602.562 130.333Z" fill="#1E459B"/>
<path d="M625.182 164.962V114.01H637.774V138.378L653.864 114.01H667.972L650.716 139.195L669.138 164.962H654.097L637.774 140.011V164.962H625.182V164.962Z" fill="#1E459B"/>
</svg>
