<svg width="100" height="92" viewBox="0 0 100 92" fill="none" xmlns="http://www.w3.org/2000/svg">
<path d="M0 45.6147C0 53.2368 7.37452 60.352 19.0005 64.3628C16.6789 76.1587 18.5847 85.6666 24.9495 89.3712C31.4916 93.1792 41.2381 90.5433 50.4889 82.3818C59.5063 90.2137 68.6197 93.2959 74.979 89.5806C81.5152 85.7618 83.5027 75.6093 81.117 63.4449C93.2264 59.4043 100 53.3372 100 45.6147C100 38.1695 92.6121 31.7287 81.1426 27.7437C83.711 15.0767 81.5348 5.79965 74.9063 1.94198C68.5159 -1.77724 59.2965 1.46438 50.1466 9.50102C40.6273 0.970921 31.499 -1.63325 24.8776 2.23512C18.4931 5.96506 16.6714 15.6459 19.0005 27.66C7.76677 31.6129 0 38.1997 0 45.6147Z" fill="white"/>
<path d="M78.832 31.7685C77.8851 31.4417 76.9301 31.1389 75.9681 30.8604C76.1276 30.2081 76.2752 29.5528 76.4106 28.8949C78.5784 18.3054 77.161 9.77444 72.3207 6.9662C67.6799 4.27285 60.0898 7.08109 52.424 13.7939C51.6687 14.4568 50.9301 15.1389 50.209 15.8394C49.7261 15.3736 49.2346 14.9169 48.7349 14.4694C40.7011 7.29108 32.6483 4.26651 27.8131 7.08307C23.1766 9.78395 21.8033 17.8042 23.755 27.8398C23.9492 28.8337 24.1684 29.8224 24.4125 30.805C23.2731 31.1307 22.1726 31.4777 21.1198 31.847C11.7013 35.1513 5.68604 40.3304 5.68604 45.702C5.68604 51.2503 12.143 56.8153 21.9537 60.1893C22.7492 60.4617 23.5514 60.714 24.3594 60.9461C24.0969 62.0047 23.8638 63.0705 23.6605 64.1422C21.7998 74.0035 23.253 81.8336 27.8772 84.5178C32.6534 87.2892 40.6696 84.4406 48.4754 77.5745C49.0924 77.0317 49.7117 76.456 50.3318 75.8526C51.1129 76.6109 51.9148 77.3472 52.7367 78.0606C60.2977 84.6078 67.7649 87.2516 72.3852 84.5602C77.1571 81.7805 78.7076 73.3688 76.6941 63.1347C76.5405 62.353 76.3614 61.5546 76.1606 60.7416C76.7236 60.5744 77.276 60.4017 77.815 60.2218C88.0139 56.8217 94.6493 51.3244 94.6493 45.702C94.6493 40.3109 88.4403 35.097 78.832 31.7685Z" fill="#5C3799"/>
<path d="M76.4509 56.4607C75.9662 56.6233 75.4685 56.7803 74.9614 56.9326C73.839 53.3339 72.3241 49.5071 70.4709 45.5539C72.2397 41.694 73.6957 37.9165 74.7868 34.3409C75.6938 34.6072 76.5745 34.8875 77.423 35.1836C85.6294 38.0445 90.6349 42.2752 90.6349 45.5348C90.6349 49.007 85.2287 53.5148 76.4512 56.4607H76.4509ZM73.235 75.6251C72.7067 78.5086 71.6447 80.431 70.3315 81.2009C67.5368 82.8395 61.5599 80.7096 55.1149 75.092C54.3759 74.448 53.6314 73.7604 52.8849 73.0329C55.3837 70.2647 57.881 67.0464 60.3182 63.4728C64.6055 63.0876 68.6557 62.4576 72.3288 61.5977C72.5093 62.3371 72.6702 63.0618 72.8088 63.7705C73.6961 68.3109 73.8229 72.416 73.235 75.6251ZM29.7565 81.1548C26.9591 79.5211 25.7966 73.2126 27.3825 64.7516C27.5711 63.7517 27.7871 62.7573 28.0301 61.7695C31.6624 62.5832 35.6832 63.1687 39.9806 63.5217C42.4339 67.0186 45.0034 70.2329 47.5929 73.0476C47.0426 73.5868 46.4792 74.1122 45.9033 74.6233C42.4626 77.6699 39.0148 79.8307 35.9763 80.9179C33.2456 81.8946 31.0709 81.9224 29.7565 81.1548ZM12.8413 50.8741C10.6419 48.9661 9.53125 47.072 9.53125 45.5348C9.53125 42.2645 14.3456 38.0926 22.3751 35.2572C23.3829 34.9028 24.4007 34.5785 25.4273 34.2845C26.5372 37.9404 27.9928 41.7628 29.7495 45.6282C27.97 49.5512 26.4936 53.4345 25.3735 57.1333C24.6383 56.9202 23.9083 56.6888 23.1843 56.4393C18.8601 54.9422 15.2891 52.9968 12.8413 50.8741ZM29.6977 10.1087C32.6647 8.36922 39.2248 10.8497 46.1392 17.0679C46.5811 17.4654 47.025 17.8816 47.4697 18.3121C44.8935 21.1142 42.3476 24.3042 39.9155 27.7808C35.7448 28.1724 31.7522 28.8012 28.0819 29.6435C27.8558 28.7264 27.6526 27.8036 27.4724 26.8761C25.8056 18.2493 26.9123 11.7417 29.6977 10.1087ZM65.7248 36.4433C64.8579 34.9266 63.9588 33.429 63.0282 31.9515C65.8578 32.3132 68.5686 32.7942 71.1141 33.3829C70.35 35.8638 69.3975 38.4579 68.2758 41.1173C67.4563 39.5422 66.6058 37.984 65.7248 36.4433ZM55.3441 27.435C51.8523 27.2679 48.3547 27.2671 44.8629 27.4326C46.5858 25.1314 48.3507 22.9936 50.1255 21.0542C51.8727 22.9713 53.6227 25.1123 55.3441 27.435ZM34.4261 36.4696C33.5561 37.9979 32.7215 39.5467 31.9229 41.1145C30.8197 38.4643 29.8759 35.8586 29.1051 33.3424C31.6353 32.7688 34.3335 32.3001 37.1447 31.9443C36.2036 33.431 35.2972 34.9398 34.4261 36.4696ZM37.2255 59.3991C34.3213 59.0708 31.5823 58.626 29.0529 58.0683C29.8358 55.5075 30.8005 52.8458 31.9273 50.1387C32.7292 51.7077 33.5675 53.2574 34.4414 54.7864C35.3331 56.3462 36.2614 57.8842 37.2255 59.3991ZM50.2303 70.2865C48.4347 68.324 46.6439 66.1536 44.8947 63.819C46.5925 63.8866 48.3237 63.9208 50.0831 63.9208C51.8908 63.9208 53.6777 63.8798 55.4363 63.8003C53.7095 66.1775 51.9657 68.351 50.2303 70.2865ZM68.3119 50.0008C69.4972 52.7373 70.4964 55.3847 71.2899 57.9021C68.7185 58.4964 65.9426 58.975 63.0176 59.3304C63.9549 57.8253 64.8626 56.3014 65.7401 54.7598C66.6321 53.193 67.4896 51.6063 68.3119 50.0008ZM62.4583 52.843C61.115 55.2066 59.6961 57.5253 58.204 59.7954C55.5729 59.9858 52.8539 60.084 50.0831 60.084C47.3237 60.084 44.6392 59.997 42.054 59.8272C40.5232 57.5624 39.0775 55.2396 37.72 52.8641C36.3689 50.5011 35.1069 48.087 33.9367 45.627C35.1039 43.1663 36.3621 40.7509 37.7087 38.386V38.3868C39.0548 36.0213 40.4891 33.7086 42.0085 31.4534C44.6459 31.2515 47.35 31.1457 50.0835 31.1457C52.8292 31.1457 55.5368 31.2523 58.1734 31.4558C59.6774 33.7075 61.1026 36.0122 62.4461 38.3657C63.7973 40.7254 65.0723 43.1289 66.2691 45.5725C65.0846 48.0411 63.8136 50.4661 62.4587 52.843H62.4583ZM70.2735 9.99464C73.2428 11.7294 74.3979 18.7243 72.5321 27.8977C72.4098 28.4953 72.2769 29.0906 72.1333 29.6833C68.4544 28.8235 64.4591 28.1835 60.2762 27.786C57.8394 24.2716 55.3146 21.076 52.7801 18.3101C53.4443 17.6616 54.1242 17.0299 54.8194 16.4156C61.3665 10.6446 67.4854 8.36604 70.2735 9.99464Z" fill="white"/>
<path d="M50.0833 37.7119C54.4704 37.7119 58.0264 41.2856 58.0264 45.6936C58.0264 50.1019 54.4704 53.6756 50.0833 53.6756C45.6966 53.6756 42.1401 50.1019 42.1401 45.6936C42.1401 41.2856 45.6966 37.7119 50.0833 37.7119Z" fill="#53C1DE"/>
<path fill-rule="evenodd" clip-rule="evenodd" d="M50.0005 28.4698C59.3284 28.4698 66.8901 36.3317 66.8901 46.0299C66.8901 55.728 59.3284 63.5899 50.0005 63.5899C40.6726 63.5899 33.1108 55.728 33.1108 46.0299C33.1108 36.3317 40.6726 28.4698 50.0005 28.4698ZM50.0005 32.182C42.5281 32.182 36.4705 38.269 36.4705 45.7778C36.4705 53.2866 42.5281 59.3736 50.0005 59.3736C57.4728 59.3736 63.5304 53.2866 63.5304 45.7778C63.5304 38.269 57.4728 32.182 50.0005 32.182ZM50.0005 33.5416C56.7256 33.5416 62.1774 39.0199 62.1774 45.7778C62.1774 52.5357 56.7256 58.014 50.0005 58.014C43.2753 58.014 37.8235 52.5357 37.8235 45.7778C37.8235 39.0199 43.2753 33.5416 50.0005 33.5416Z" fill="#5C3799"/>
<path d="M43.3344 46.8771C43.3785 46.9553 43.4163 47.0383 43.4479 47.1262C43.4825 47.2109 43.5157 47.2972 43.5472 47.3851C43.5787 47.294 43.6118 47.2077 43.6465 47.1262C43.6812 47.0416 43.7206 46.9569 43.7647 46.8722L46.0586 42.5687C46.0996 42.4938 46.1422 42.4482 46.1863 42.4319C46.2304 42.4156 46.2935 42.4075 46.3755 42.4075H47.0518V49.4075H46.2478V44.2637C46.2478 44.1953 46.2494 44.1221 46.2525 44.0439C46.2557 43.9657 46.2604 43.886 46.2667 43.8045L43.9445 48.1814C43.8656 48.3279 43.7553 48.4012 43.6134 48.4012H43.481C43.3391 48.4012 43.2287 48.3279 43.1499 48.1814L40.7757 43.7899C40.7851 43.8746 40.7914 43.9576 40.7946 44.039C40.8009 44.1204 40.804 44.1953 40.804 44.2637V49.4075H40V42.4075H40.6763C40.7583 42.4075 40.8214 42.4156 40.8655 42.4319C40.9097 42.4482 40.9522 42.4938 40.9932 42.5687L43.3344 46.8771Z" fill="white"/>
<path d="M54.5758 45.9099C54.5758 46.4342 54.4954 46.9113 54.3346 47.3412C54.1738 47.771 53.9468 48.139 53.6536 48.4452C53.3603 48.7513 53.0088 48.989 52.5989 49.1583C52.189 49.3244 51.7349 49.4075 51.2367 49.4075H48.7017V42.4075H51.2367C51.7349 42.4075 52.189 42.4921 52.5989 42.6615C53.0088 42.8276 53.3603 43.0653 53.6536 43.3747C53.9468 43.6808 54.1738 44.0488 54.3346 44.4787C54.4954 44.9085 54.5758 45.3856 54.5758 45.9099ZM53.6346 45.9099C53.6346 45.48 53.5779 45.0958 53.4644 44.7571C53.3509 44.4184 53.1901 44.1318 52.982 43.8974C52.7739 43.6629 52.5216 43.4838 52.2252 43.36C51.9288 43.2363 51.5993 43.1744 51.2367 43.1744H49.624V48.6405H51.2367C51.5993 48.6405 51.9288 48.5787 52.2252 48.4549C52.5216 48.3312 52.7739 48.1537 52.982 47.9225C53.1901 47.688 53.3509 47.4014 53.4644 47.0627C53.5779 46.7241 53.6346 46.3398 53.6346 45.9099Z" fill="white"/>
<path d="M60 42.4075V43.1793H56.746V45.5045H59.3804V46.247H56.746V48.6357H60V49.4075H55.8238V42.4075H60Z" fill="white"/>
</svg>
