<svg width="300" height="300" viewBox="0 0 300 300" fill="none" xmlns="http://www.w3.org/2000/svg">
<rect width="300" height="300" fill="#F0F4F8"/>
<path d="M117.699 175V158.934L135.031 124.27H119.457L110.562 144.836H110.281L101.387 124.27H85.4609L102.793 158.934V175H117.699ZM149.41 175.984C162.102 175.984 169.836 168.707 169.836 155.559C169.836 142.727 161.926 135.203 149.41 135.203C136.965 135.203 129.02 142.797 129.02 155.559C129.02 168.672 136.754 175.984 149.41 175.984ZM149.41 165.684C145.789 165.684 143.645 162.098 143.645 155.594C143.645 149.266 145.895 145.504 149.41 145.504C152.961 145.504 155.211 149.266 155.211 155.594C155.211 162.098 152.996 165.684 149.41 165.684ZM213.887 136.188H199.473V157.879C199.473 161.641 197.363 164.137 194.129 164.137C190.754 164.137 188.539 161.957 188.539 157.844V136.188H174.125V161.078C174.125 170.324 180.242 175.773 188.574 175.773C194.375 175.773 197.996 172.645 199.543 167.371H199.824V175H213.887V136.188Z" fill="#102A43"/>
</svg>
